<svg id="b2e28939-a2a7-4c95-9da1-c7b4b0485a69" data-name="Capa 1" xmlns="http://www.w3.org/2000/svg" viewBox="0 0 768 768"><path d="M339.62,639.5s-65-62-67-63-64-69-64-69-36-43-38-44-99-81-99-81v-20l18-8,21,9,36,4,23-7,8-34h20.82l-7.82-57,5-17,61,6,27-41h15.62l25.38,30,16,1s-1-15-1-16,43-30,43-30l19-17,16-12V147.24h16.53V127.53l31.47-20,10,18,27,13h17l26-14,50-17,32-13,28-13h40.76l-21.76,38,15,54-24,49-18,35-6,45L639.54,362l7.08,30.5-3,28v23l6,7a32.31,32.31,0,0,1-7,8,146.68,146.68,0,0,0-11,10l-13,55,10,35-19,27s-9,16-9,20,11,43,11,43l17,16-11,22h-57l-38-31-41-10-19,15-100-31Z" style="fill:none;stroke:#fff;stroke-miterlimit:10;stroke-width:11px"/><path d="M202.5,325.5l-25,1-8,34-23,7-36-4-21-9-18,8v20s97,80,99,81,38,44,38,44,62,68,64,69,67,63,67,63l23-10,100,31L482,645l-27.5-51.5-28-37-32-29-13.67-.3L364.5,504.5l-25-5-18-19v-10l-17-30-10-10-34-12-.29-33-21.71-5-6-26-31-1Z" style="fill:none;stroke:#fff;stroke-miterlimit:10;stroke-width:11px"/><path d="M435.5,147.5l-.48,0H418.49v26.27l-16,12-19,17s-43,29-43,30,1,16,1,16l-16-1-25.38-30H284.49l-27,41-61-6-5,17,7.82,57L197.5,352.5h35.16l6.84,29,21.46,3-1.46,31,43,17,21,40,5,18,35,16,14,19,20,5,62,68,23,47.29,41,10,38,31h57l11-22-17-16s-15-11.29-17-11.29-22-2-22-2l-38.18-29.71L500.5,578.5l8-16-13-45-16-12-6-39-8-11-2-18-23-25v-11L419.11,396l-5.61-23.5,17-23-4-8h-22l-22.67-8.33L371.5,317.5l10.33-27.78L392,260.92l18.49-7.08,16,3.66,28-33,6-22-4-20-17-20Z" style="fill:none;stroke:#fff;stroke-miterlimit:10;stroke-width:11px"/><path d="M646.5,392.53l-3,28v23l6,7-18,18-13,55,10,35c-5.29,8.88-19,27-19,27s-5,13.2-9,20l7.66,31-34.66-1L548,614,500.5,578.5l8-16-13-45-16-12-6-39c-2.85-6.05-6.65-17.44-10-30h0s-18.86-14.93-23-24q.5-5.5,1-11l-23-6-4-23L435,349l10.76-9.64L471,341l15-9,48.37-8.17L576,334l17-12,22,10,25.5,30.47Z" style="fill:none;stroke:#fff;stroke-miterlimit:10;stroke-width:11px"/><polygon points="640.5 360.5 640.35 302.1 646.35 257.1 688.35 173.1 673.35 119.1 698.89 81.1 649.12 81.1 544.35 124.1 518.35 138.1 501.35 138.1 474.35 125.1 464.35 107.1 433.5 127.5 439.5 162.5 456.5 182.5 460.5 202.5 455.5 222.5 426.5 257.5 410.5 253.5 391.5 260.5 371.5 317.5 380.5 331.5 404.5 341.5 427.85 337.6 472.5 340.5 487.5 331.5 535.87 323.33 577.5 333.5 594.5 321.5 616.5 331.5 640.5 360.5" style="fill:#fff;stroke:#fff;stroke-miterlimit:10;stroke-width:11px"/></svg>