<svg id="e7d0cbc4-9764-46f7-b2a2-e2eb9f9b85bf" data-name="Capa 1" xmlns="http://www.w3.org/2000/svg" viewBox="0 0 505.9 505.87"><path d="M258,130.18" transform="translate(-3.21 -3.65)" style="fill:none;stroke:#837059;stroke-miterlimit:10"/><path d="M253.82,123.64c-21.52,0-39.16,3.18-51,3.84a161.63,161.63,0,0,0-10.27-25.84c-25.27-50.4-71-75.07-95.15-85.64A424.38,424.38,0,0,0,32,144.46C6.19,228,12.46,300.09,18.91,339.52c4.92,21,18,62.73,54.71,98.72,58.11,56.93,137.29,61.71,180.2,61.26,51.4-.55,144.91-7.57,202.2-79.69,34.06-42.89,39.46-97.88,42.81-149.87C502.48,213.44,469.1,107,469.1,107l-138-26.17-25,45.2S284.74,123.64,253.82,123.64Z" transform="translate(-3.21 -3.65)" style="fill:none;stroke:#837059;stroke-miterlimit:10;stroke-width:20px"/><path d="M331.13,80.82c-.63,24.68-3.94,46.07.37,81.68C340.19,234.33,359.67,264,359.67,264c10.08,1.58,75.33-13.92,109.43-157" transform="translate(-3.21 -3.65)" style="fill:none;stroke:#837059;stroke-miterlimit:10;stroke-width:18px"/><path d="M178.88,143.86" transform="translate(-3.21 -3.65)" style="fill:none;stroke:#837059;stroke-miterlimit:10;stroke-width:11px"/><path d="M177.69,137.91A135,135,0,0,0,104,47.52,306.05,306.05,0,0,0,54,162.89" transform="translate(-3.21 -3.65)" style="fill:none;stroke:#837059;stroke-miterlimit:10;stroke-width:15px"/><circle cx="163.77" cy="257.96" r="20.81" style="fill:none;stroke:#837059;stroke-miterlimit:10;stroke-width:16px"/><path d="M367.17,258.49a24.31,24.31,0,0,1,.23,3.12,20.82,20.82,0,1,1-20.81-20.81" transform="translate(-3.21 -3.65)" style="fill:none;stroke:#837059;stroke-miterlimit:10;stroke-width:16px"/><path d="M367,249" transform="translate(-3.21 -3.65)" style="fill:none;stroke:#837059;stroke-miterlimit:10;stroke-width:14px"/><path d="M247.15,311h35a4.51,4.51,0,0,1,3.42,7.44l-16,18.76-18.94,22.18a4.51,4.51,0,0,1-6.86,0l-18.93-22.18-16-18.76A4.51,4.51,0,0,1,212.2,311Z" transform="translate(-3.21 -3.65)" style="fill:none;stroke:#837059;stroke-miterlimit:10;stroke-width:16px"/><path d="M241.15,360.93v70.19c0,7.72,12,7.73,12,0V360.93c0-7.72-12-7.73-12,0Z" transform="translate(-3.21 -3.65)" style="fill:#837059"/><path d="M56,343.78a268.83,268.83,0,0,1,141.12,10.7c9.11,3.23,13-11.25,4-14.46A284,284,0,0,0,52,329.31c-9.46,1.85-5.46,16.31,4,14.47Z" transform="translate(-3.21 -3.65)" style="fill:#837059"/><path d="M110.11,389.34a122.56,122.56,0,0,1,85.52,8.52c8.65,4.2,16.26-8.73,7.57-12.95-30.38-14.76-64.34-18.78-97.08-10-9.32,2.49-5.37,17,4,14.47Z" transform="translate(-3.21 -3.65)" style="fill:#837059"/><path d="M453,329.46a284.08,284.08,0,0,0-149.1,10.7c-9,3.2-5.14,17.7,4,14.47A268.83,268.83,0,0,1,449,343.92c9.43,1.84,13.47-12.61,4-14.46Z" transform="translate(-3.21 -3.65)" style="fill:#837059"/><path d="M398.84,375c-32.75-8.75-66.71-4.73-97.08,10-8.68,4.22-1.09,17.16,7.57,12.95a122.56,122.56,0,0,1,85.52-8.52c9.34,2.49,13.32-12,4-14.46Z" transform="translate(-3.21 -3.65)" style="fill:#837059"/><path d="M420.5,177.5" transform="translate(-3.21 -3.65)" style="fill:none;stroke:#837059;stroke-miterlimit:10;stroke-width:11px"/></svg>